<svg width="76" height="20"
  xmlns="http://www.w3.org/2000/svg"
  xmlns:xlink="http://www.w3.org/1999/xlink">
  <defs>
    <path d="M9.496 8.659a.312.312 0 0 1 0 .446l-.454.447a.325.325 0 0 1-.454 0l-.682-.671-.682.671a.325.325 0 0 1-.454 0l-.454-.447a.312.312 0 0 1 0-.446l.682-.671-.682-.672a.312.312 0 0 1 0-.446l.454-.447a.325.325 0 0 1 .454 0l.682.672.682-.672a.325.325 0 0 1 .454 0l.454.447a.312.312 0 0 1 0 .446l-.682.672.682.671zM7.903 1.336c3.734 0 6.76 2.978 6.76 6.652 0 3.673-3.026 6.651-6.76 6.651-3.152 0-5.797-2.119-6.548-4.988a.238.238 0 0 1-.012-.08.32.32 0 0 1 .322-.318h2.726a.323.323 0 0 1 .298.197 3.55 3.55 0 0 0 3.214 2.02c1.953 0 3.54-1.558 3.54-3.482 0-1.922-1.584-3.483-3.54-3.483a3.55 3.55 0 0 0-3.214 2.02l-.007.012a.323.323 0 0 1-.29.185H1.664a.32.32 0 0 1-.322-.317.33.33 0 0 1 .012-.08c.751-2.87 3.4-4.989 6.548-4.989z" id="a"/>
  </defs>
  <g fill="none" fill-rule="evenodd">
    <path d="M4 0h69a3 3 0 0 1 3 3v14a3 3 0 0 1-3 3H4a4 4 0 0 1-4-4V4a4 4 0 0 1 4-4z" fill="#F24646"/>
    <g transform="translate(5 2)">
      <path d="M0 0h16v16H0z"/>
      <mask id="b" fill="#fff">
        <use xlink:href="#a"/>
      </mask>
      <use fill="#ED5D5C" xlink:href="#a"/>
      <g mask="url(#b)" fill="#FFF">
        <path d="M0 0h16v16H0z"/>
      </g>
    </g>
    <path d="M31.877 10.933h-3.938V15h-2.05V5.047h6.48v1.661h-4.43v2.57h3.938v1.655zm6.169 2.016H34.45L33.767 15h-2.181l3.705-9.953h1.9L40.917 15h-2.18l-.691-2.05zm-3.042-1.66h2.488l-1.25-3.726-1.238 3.725zM44.208 15h-2.05V5.047h2.05V15zm4.132-1.647h4.354V15H46.29V5.047h2.05v8.306zm11.699-2.666h-3.938v2.666h4.622V15H54.05V5.047h6.658v1.661H56.1V9.08h3.938v1.607zM62.106 15V5.047h3.063c.875 0 1.658.197 2.348.591.69.394 1.23.955 1.617 1.682s.58 1.553.58 2.478v.458c0 .925-.19 1.748-.57 2.468a4.088 4.088 0 0 1-1.61 1.674c-.693.397-1.474.597-2.345.602h-3.083zm2.051-8.292v6.645h.991c.802 0 1.415-.263 1.84-.787.423-.524.64-1.273.649-2.249v-.526c0-1.012-.21-1.778-.63-2.3-.419-.522-1.032-.783-1.838-.783h-1.012z" fill="#FFF"/>
  </g>
</svg>