<?xml version="1.0" encoding="UTF-8"?>
<svg width="2471" height="2500" preserveAspectRatio="xMinYMin meet" version="1.1" viewBox="0 0 256 259" xmlns="http://www.w3.org/2000/svg" xmlns:cc="http://creativecommons.org/ns#" xmlns:dc="http://purl.org/dc/elements/1.1/" xmlns:rdf="http://www.w3.org/1999/02/22-rdf-syntax-ns#">
<metadata>
<rdf:RDF>
<cc:Work rdf:about="">
<dc:format>image/svg+xml</dc:format>
<dc:type rdf:resource="http://purl.org/dc/dcmitype/StillImage"/>
</cc:Work>
</rdf:RDF>
</metadata>
<g fill="#343434">
<circle cx="126.16" cy="129.01" r="126.65" fill="#fff"/>
<path d="m15.05 100.11c0 0.32781-0.3287 0.98433-0.3287 1.313 0 2.9548 2.2983 5.5817 5.5817 5.5817h46.297c2.2983 0 3.94-1.313 4.9252-3.2835 9.5226-21.014 30.537-35.133 54.504-35.133 33.163 0 60.087 26.924 60.087 60.087 0 33.163-26.924 60.087-60.087 60.087-24.297 0-44.983-14.447-54.504-34.804-0.98522-2.2983-2.627-3.6122-4.9261-3.6122h-46.294c-2.9557 0-5.5826 2.2983-5.5826 5.5826 0 0.32782 0 0.98433 0.3287 1.313 12.805 49.908 57.788 86.683 111.31 86.683 63.37 0 114.92-51.55 114.92-114.92-8.9e-4 -63.37-51.551-114.92-114.92-114.92-53.519 0-98.503 36.775-111.31 86.026z"/>
<circle cx="126.79" cy="128.93" r="30.593"/>
</g>
</svg>
